<svg xmlns="http://www.w3.org/2000/svg" viewBox="0 0 512 512" width="512" height="512">
  <rect width="512" height="512" rx="114" fill="#143D2E"/>
  <g transform="translate(166,106) scale(3) translate(-30,-40)">
    <path d="M60 46C77 52 86 74 82 102C79 122 70 134 60 134C50 134 41 122 38 102C34 74 43 52 60 46Z" transform="rotate(-22 60 132)" fill="#F4B0A0"/>
    <path d="M60 46C77 52 86 74 82 102C79 122 70 134 60 134C50 134 41 122 38 102C34 74 43 52 60 46Z" transform="rotate(22 60 132)" fill="#BC3B2C"/>
    <path d="M60 46C77 52 86 74 82 102C79 122 70 134 60 134C50 134 41 122 38 102C34 74 43 52 60 46Z" fill="#E1694F"/>
  </g>
</svg>
